<?xml version="1.0" standalone="no"?>
<!DOCTYPE svg PUBLIC "-//W3C//DTD SVG 20010904//EN"
 "http://www.w3.org/TR/2001/REC-SVG-20010904/DTD/svg10.dtd">
<svg version="1.0" xmlns="http://www.w3.org/2000/svg"
 width="560.000000pt" height="560.000000pt" viewBox="0 0 560.000000 560.000000"
 preserveAspectRatio="xMidYMid meet">
<metadata>
Created by potrace 1.14, written by Peter Selinger 2001-2017
</metadata>
<g transform="translate(0.000000,560.000000) scale(0.100000,-0.100000)"
fill="#000000" stroke="none">
<path d="M2675 5099 c-741 -47 -1389 -480 -1719 -1149 -69 -141 -134 -324
-165 -470 -49 -226 -51 -283 -48 -1545 2 -1102 3 -1183 20 -1224 39 -99 127
-181 228 -212 59 -18 119 -19 1815 -19 l1754 0 66 22 c89 29 169 102 210 190
l29 63 0 1190 c0 655 -3 1228 -7 1275 -46 530 -300 1029 -703 1377 -416 359
-939 537 -1480 502z m510 -153 c225 -47 449 -136 632 -249 442 -275 758 -706
879 -1202 54 -221 54 -231 54 -1512 0 -871 -3 -1196 -12 -1224 -16 -53 -69
-113 -126 -141 l-47 -23 -1755 0 c-1675 0 -1757 1 -1802 18 -56 22 -123 92
-138 146 -6 23 -10 459 -10 1228 0 1022 2 1208 16 1305 118 864 781 1537 1646
1672 67 10 156 14 318 11 196 -2 240 -6 345 -29z"/>
<path d="M1752 3564 c-102 -51 -157 -144 -156 -264 1 -94 27 -152 96 -215 146
-131 378 -81 459 100 54 119 17 269 -85 346 -60 45 -104 59 -193 59 -54 0 -80
-6 -121 -26z m268 -74 c10 -5 26 -30 35 -54 33 -86 -6 -186 -72 -186 -37 1
-59 19 -78 63 -45 109 29 223 115 177z"/>
<path d="M3617 3576 c-184 -66 -244 -318 -111 -466 139 -154 385 -121 482 64
22 42 27 64 26 126 0 122 -55 214 -156 264 -42 21 -66 26 -127 26 -42 -1 -93
-7 -114 -14z m258 -102 c46 -50 42 -158 -8 -204 -69 -65 -160 44 -128 152 24
79 88 104 136 52z"/>
<path d="M2339 2709 c-19 -19 -21 -29 -15 -84 9 -86 31 -149 82 -225 88 -135
230 -210 396 -211 93 0 143 12 231 58 128 67 223 199 247 344 14 84 8 117 -25
129 -25 10 -75 -2 -75 -17 -1 -45 -24 -155 -40 -189 -29 -67 -111 -147 -183
-180 -54 -25 -74 -29 -152 -29 -71 1 -100 5 -139 23 -134 61 -213 171 -230
317 -6 56 -14 72 -39 79 -33 9 -35 8 -58 -15z"/>
</g>
</svg>
